<?xml version="1.0" encoding="UTF-8" standalone="no"?>
<!-- Generator: Adobe Illustrator 23.1.0, SVG Export Plug-In . SVG Version: 6.00 Build 0)  -->

<svg
   version="1.1"
   id="Livello_1"
   x="0px"
   y="0px"
   viewBox="0 0 800 800"
   style="enable-background:new 0 0 800 800;"
   xml:space="preserve"
   sodipodi:docname="chihuahua.svg"
   inkscape:version="1.3.2 (091e20e, 2023-11-25)"
   xmlns:inkscape="http://www.inkscape.org/namespaces/inkscape"
   xmlns:sodipodi="http://sodipodi.sourceforge.net/DTD/sodipodi-0.dtd"
   xmlns="http://www.w3.org/2000/svg"
   xmlns:svg="http://www.w3.org/2000/svg"><defs
   id="defs17" /><sodipodi:namedview
   id="namedview17"
   pagecolor="#ffffff"
   bordercolor="#000000"
   borderopacity="0.25"
   inkscape:showpageshadow="2"
   inkscape:pageopacity="0.0"
   inkscape:pagecheckerboard="0"
   inkscape:deskcolor="#d1d1d1"
   inkscape:zoom="1.10625"
   inkscape:cx="400"
   inkscape:cy="400"
   inkscape:window-width="1936"
   inkscape:window-height="1212"
   inkscape:window-x="0"
   inkscape:window-y="25"
   inkscape:window-maximized="0"
   inkscape:current-layer="Livello_1" />
<style
   type="text/css"
   id="style1">
	.st0{fill:#F0A841;}
	.st1{fill:#FED62E;}
	.st2{fill:#373636;}
	.st3{fill:#FFFFFF;}
	.st4{fill:#FFFEDF;}
	.st5{fill:#FA7F5B;}
	.st6{fill:#FED493;}
</style>
<g
   id="g17"
   transform="matrix(1.3463661,0,0,1.3463661,-135.01864,-140.28521)">
	<g
   id="faccia_cane">
		<path
   class="st0"
   d="m 680.5,410.5 c 0,161.5 -142.7,267.7 -251.1,283.8 -10.7,1.6 -18.6,1.9 -21.8,2 C 289.4,700 108.8,594.1 108.8,410.5 108.7,256.1 236.4,124.7 394.6,124.7 c 157.9,0 285.9,128 285.9,285.8 z"
   id="path1" />
		<path
   class="st1"
   d="m 687,393.4 c 0,161.5 -142.7,267.7 -251.1,283.8 -10.7,1.6 -18.6,1.9 -21.8,2 C 296,682.9 115.5,577 115.4,393.4 115.3,239 242.9,107.5 401.2,107.5 559,107.5 687,235.5 687,393.4 Z"
   id="path2" />
		<path
   class="st0"
   d="M 606.4,386.5 C 608.6,477 542.7,556 463.8,577.9 344.1,611.1 200.9,511 201.9,386.5 c 0.9,-98 91,-192 202.2,-192 107.3,0.1 199.8,87.6 202.3,192 z"
   id="path3" />
		<path
   class="st2"
   d="m 469.2,246.8 c 2.5,6.8 9.8,9.4 15.2,13.5 40.5,31.4 70.8,69.3 91.4,113.8 5.2,11.3 7.6,23.5 14,34.4 0.1,-0.1 0.3,-0.2 0.4,-0.2 0.2,-0.1 0.2,-0.2 0.2,-0.3 0.6,-0.8 44.4,-40.8 69,-94.4 5.1,-11.1 15.4,-34 19,-65.4 5.1,-44.3 -8.4,-58.7 -7.2,-91 0.1,-1.7 0.3,-6 -2.4,-9.7 -6.1,-8.6 -22.6,-7 -35.8,-4.8 -39.6,6.7 -78,13.2 -117.1,46.4 -12.5,10.7 -31,29.2 -46.7,57.7 z"
   id="path4" />
		<path
   class="st2"
   d="m 317.9,252.7 c -2.5,6.8 -9.8,9.4 -15.2,13.5 -40.5,31.4 -70.8,69.3 -91.4,113.8 -5.2,11.3 -7.6,23.5 -14,34.4 -0.1,-0.1 -0.3,-0.2 -0.4,-0.2 -0.2,-0.1 -0.2,-0.2 -0.2,-0.3 -0.6,-0.8 -44.4,-40.8 -69,-94.4 -5.1,-11.1 -15.4,-34 -19,-65.4 -5.1,-44.3 8.4,-58.7 7.2,-91 -0.1,-1.7 -0.3,-6 2.4,-9.7 6.1,-8.6 22.6,-7 35.8,-4.8 39.6,6.7 78,13.2 117.1,46.4 12.5,10.8 31.1,29.2 46.7,57.7 z"
   id="path5" />
		<path
   class="st1"
   d="m 309,265.6 c -2,5.8 -7.7,8 -11.9,11.5 -31.9,26.7 -55.8,59 -72,96.9 -4.1,9.6 -6,20 -11,29.3 -0.2,-0.1 -0.5,-0.3 -0.5,-0.4 -2.1,-16.2 -11.5,-28.5 -21,-41.4 -19.5,-26.5 -28.2,-57.6 -34.5,-89.2 -5.5,-27.4 -7.4,-55.1 -8.1,-83 -0.2,-8.9 2.2,-10.7 11,-8.9 59.1,12.2 108.5,40.5 148,85.2 z"
   id="path6" />
		<path
   class="st1"
   d="m 492.5,261.7 c 1.9,5.8 7.7,8 11.9,11.6 31.7,26.9 55.4,59.3 71.4,97.3 4.1,9.7 5.9,20 10.8,29.3 0.2,-0.1 0.5,-0.3 0.5,-0.4 2.2,-16.2 11.6,-28.4 21.2,-41.3 19.6,-26.4 28.5,-57.4 35,-89 5.7,-27.3 7.8,-55.1 8.6,-82.9 0.3,-8.9 -2.1,-10.8 -11,-9 -59.1,11.9 -108.6,39.9 -148.4,84.4 z"
   id="path7" />
		<path
   class="st3"
   d="m 485.3,276.1 c 1.8,5.1 7.2,7 11.1,10.1 29.6,23.4 51.8,51.5 66.9,84.6 3.8,8.4 5.6,17.5 10.2,25.6 0.2,-0.1 0.5,-0.2 0.5,-0.4 2,-14.1 10.7,-24.9 19.5,-36.2 18.1,-23.2 26.2,-50.3 32.1,-77.9 5.1,-23.9 6.9,-48.2 7.6,-72.5 0.2,-7.8 -2,-9.4 -10.2,-7.8 -55.2,10.7 -101,35.5 -137.7,74.5 z"
   id="path8" />
		<path
   class="st3"
   d="m 318.9,282.5 c -1.8,5.1 -7.2,7 -11.1,10.1 -29.6,23.4 -51.8,51.5 -66.9,84.6 -3.8,8.4 -5.6,17.5 -10.2,25.6 -0.2,-0.1 -0.5,-0.2 -0.5,-0.4 -2,-14.1 -10.7,-24.9 -19.5,-36.2 -18.1,-23.2 -26.2,-50.3 -32.1,-77.9 -5.1,-23.9 -6.9,-48.2 -7.6,-72.5 -0.2,-7.8 2,-9.4 10.2,-7.8 55.2,10.6 101.1,35.4 137.7,74.5 z"
   id="path9" />
		<ellipse
   class="st2"
   cx="399.10001"
   cy="401.79999"
   rx="202.2"
   ry="192"
   id="ellipse9" />
		<circle
   class="st1"
   cx="288.60001"
   cy="437.39999"
   r="71.699997"
   id="circle9" />
		<circle
   class="st2"
   cx="290.29999"
   cy="432.29999"
   r="56.799999"
   id="circle10" />
		<circle
   class="st1"
   cx="542.70001"
   cy="433.70001"
   r="71.699997"
   id="circle11" />
		<circle
   class="st2"
   cx="544.40002"
   cy="428.60001"
   r="56.799999"
   id="circle12" />
		<circle
   class="st4"
   cx="559.5"
   cy="402"
   r="17"
   id="circle13" />
		
			<circle
   transform="matrix(0.1602,-0.9871,0.9871,0.1602,-37.7514,899.4285)"
   class="st4"
   cx="509.70001"
   cy="471.89999"
   id="ellipse13"
   r="9.8999996" />
		<path
   class="st5"
   d="m 389.7,606.6 c 3.7,6.2 15.5,25.9 36.9,25.9 15.3,0 29.8,-10.3 36.8,-25.8 1.5,-5.2 6.1,-22.6 -2.9,-36 -16.5,-24.5 -67.6,-20.1 -77.9,0.6 -6.5,12.9 4,30.2 7.1,35.3 z"
   id="path13" />
		<path
   class="st3"
   d="m 506.2,535.1 c 3.2,19.8 -4.6,40.2 -18.1,53.5 -10.9,10.8 -22.9,14.3 -33.3,17.2 -9.2,2.6 -55.9,15.6 -92,-12.9 -5.4,-4.2 -28.1,-22.2 -29.2,-49.7 -0.6,-14.8 5.4,-26.3 9.1,-33.4 13,-24.4 27.7,-24.5 39.8,-40.2 28.9,-37.6 -0.8,-108 18.1,-133.9 1.7,-2.4 6.6,-9 13.3,-9.1 6.5,-0.1 11.5,6.1 13.3,8.3 20.4,25.3 -2.1,98.5 30.7,135.1 10,11.2 22.8,16.3 36.6,38.3 5.4,8.4 9.9,15.9 11.7,26.8 z"
   id="path14" />
		<path
   class="st6"
   d="M 410.5,346.1"
   id="path15" />
		<path
   class="st2"
   d="m 421.5,552.2 c -9.3,-2.1 -16.9,-7.2 -17.4,-7.6 -6.7,-4.5 -14.8,-10 -14.2,-16.8 0.3,-3.3 2.5,-5.8 3,-6.3 2.5,-2.6 5.9,-3.5 11.7,-4.9 0.8,-0.2 1.9,-0.5 3.4,-0.7 14.7,-2.7 30.8,-0.8 30.8,-0.8 3.2,0.4 6.6,0.9 10.2,1.7 2.8,0.6 5.5,1.3 7.9,2 2.9,0.7 5.2,2.7 6,5.4 0.9,3.1 -0.6,5.7 -0.8,6.2 -3.7,6.7 -8,11.2 -11,13.8 -3.6,3.2 -7.8,6.9 -14.1,8.3 -3.9,0.9 -7.8,0.7 -8.7,0.7 -1,-0.1 -3.5,-0.3 -6.8,-1 z"
   id="path16" />
		<circle
   class="st4"
   cx="305.29999"
   cy="405.70001"
   r="17"
   id="circle16" />
		<circle
   class="st4"
   cx="263.70001"
   cy="475.60001"
   r="9.8999996"
   id="circle17" />
	</g>
</g>
</svg>
