<?xml version="1.0" encoding="UTF-8" standalone="no"?>
<svg
   width="600"
   height="600"
   fill="none"
   viewBox="0 0 600 600"
   version="1.1"
   id="svg5"
   sodipodi:docname="injective.svg"
   inkscape:version="1.3.2 (091e20e, 2023-11-25)"
   xmlns:inkscape="http://www.inkscape.org/namespaces/inkscape"
   xmlns:sodipodi="http://sodipodi.sourceforge.net/DTD/sodipodi-0.dtd"
   xmlns="http://www.w3.org/2000/svg"
   xmlns:svg="http://www.w3.org/2000/svg">
  <sodipodi:namedview
     id="namedview5"
     pagecolor="#ffffff"
     bordercolor="#000000"
     borderopacity="0.25"
     inkscape:showpageshadow="2"
     inkscape:pageopacity="0.0"
     inkscape:pagecheckerboard="0"
     inkscape:deskcolor="#d1d1d1"
     inkscape:zoom="1.4416667"
     inkscape:cx="210.52023"
     inkscape:cy="300"
     inkscape:window-width="2000"
     inkscape:window-height="1212"
     inkscape:window-x="0"
     inkscape:window-y="25"
     inkscape:window-maximized="0"
     inkscape:current-layer="svg5" />
  <path
     fill="url(#paint0_linear)"
     d="m 73.883933,104.68592 c 3.707338,-4.65954 7.635559,-9.142966 11.56378,-13.626401 0.176117,-0.22238 0.574615,-0.267158 0.75072,-0.489538 0.35372,-0.443264 0.928334,-0.710422 1.280557,-1.155182 l 0.35372,-0.443263 c 2.738704,-2.531259 5.652041,-5.286382 9.011624,-7.686301 11.886156,-9.023576 24.221556,-15.878559 37.228566,-20.388844 41.71946,-14.647258 88.15964,-5.620701 124.57778,28.760189 50.85048,47.66552 46.29691,124.45242 5.70428,175.48945 -51.29524,76.08394 -139.44741,182.234 -17.39343,277.32324 21.94551,17.09792 38.22554,31.19445 107.353,51.17137 -45.21037,8.32807 -87.13131,5.73712 -133.79239,-6.18038 C 187.51732,568.83105 135.62658,528.94289 117.97197,475.06863 91.289309,393.37294 164.94944,271.24285 200.54822,224.20566 249.42414,159.10792 170.33881,88.637217 112.11395,167.31062 81.67919,208.31069 28.433268,324.33205 46.937108,410.39176 57.756132,459.19455 72.176531,494.76795 129.35366,543.63491 118.75104,537.37841 108.45439,530.28165 98.46667,522.34161 -34.380975,398.59366 -18.968373,207.2555 73.883933,104.68592 Z"
     id="path1"
     style="fill:url(#paint0_linear);stroke-width:1.49248" />
  <path
     fill="url(#paint1_linear)"
     d="m 526.11606,495.31419 c -3.70734,4.65954 -7.63556,9.14298 -11.56378,13.6264 -0.17612,0.22238 -0.57461,0.26716 -0.75072,0.48954 -0.35372,0.44326 -0.92833,0.71042 -1.28056,1.15518 l -0.35372,0.44326 c -2.73871,2.53126 -5.65204,5.2864 -9.01162,7.6863 -11.88616,9.02358 -24.22156,15.87856 -37.22856,20.38886 -41.71946,14.64724 -88.15965,5.6207 -124.57779,-28.7602 C 290.49883,462.67801 295.05241,385.89112 335.64503,334.85407 386.94027,258.77013 475.09244,152.62008 353.03845,57.530833 331.09295,40.432914 314.81291,26.33639 245.68546,6.3594687 c 45.21037,-8.3286692 87.13131,-5.73786432 133.79089,6.1803813 33.00632,18.629204 84.89707,58.517382 102.55167,112.39163 26.68266,81.69569 -46.97747,203.82579 -82.57624,250.86296 -48.87593,65.09776 30.2094,135.56845 88.43426,56.89506 30.43476,-41.00008 83.68069,-157.02143 65.17685,-243.08115 -10.81904,-48.80279 -25.23943,-84.37619 -82.41655,-133.243154 10.6026,6.2565 20.89926,13.353277 30.88698,21.293298 C 634.38097,201.40645 618.96807,392.7446 526.11606,495.31419 Z"
     id="path2"
     style="fill:url(#paint1_linear);stroke-width:1.49248" />
  <defs
     id="defs5">
    <linearGradient
       id="paint0_linear"
       x1="100"
       x2="500"
       y1="300"
       y2="300"
       gradientUnits="userSpaceOnUse"
       gradientTransform="matrix(1.4924857,0,0,1.4924857,-147.74571,-147.74565)">
      <stop
         stop-color="#0082FA"
         id="stop2" />
      <stop
         offset="1"
         stop-color="#00F2FE"
         id="stop3" />
    </linearGradient>
    <linearGradient
       id="paint1_linear"
       x1="100"
       x2="500"
       y1="300"
       y2="300"
       gradientUnits="userSpaceOnUse"
       gradientTransform="matrix(1.4924857,0,0,1.4924857,-147.74571,-147.74565)">
      <stop
         stop-color="#0082FA"
         id="stop4" />
      <stop
         offset="1"
         stop-color="#00F2FE"
         id="stop5" />
    </linearGradient>
  </defs>
</svg>
