<?xml version="1.0" encoding="utf-8"?>
<!-- Generator: Adobe Illustrator 27.0.1, SVG Export Plug-In . SVG Version: 6.00 Build 0)  -->
<svg version="1.1" id="Logo" xmlns="http://www.w3.org/2000/svg" xmlns:xlink="http://www.w3.org/1999/xlink" x="0px" y="0px"
	 viewBox="0 0 148 154.9" style="enable-background:new 0 0 148 154.9;" xml:space="preserve">
<style type="text/css">
	.st0{fill:#FFFFFF;}
</style>
<path class="st0" d="M74,9.8c37.3,0,67.6,30.2,67.6,67.6s-30.2,67.6-67.6,67.6S6.4,114.6,6.4,77.3C6.4,40,36.6,9.8,74,9.8
	C73.9,9.8,74,9.8,74,9.8 M74,3.4c-9.9,0-19.7,2-28.8,5.9c-8.8,3.8-16.7,9.1-23.5,15.9C7.8,39,0,57.8,0,77.5c0,9.9,2,19.7,5.8,28.8
	C9.6,115,15,123,21.7,129.8c13.9,13.8,32.7,21.6,52.3,21.7c9.9,0,19.7-2,28.8-5.9c8.8-3.8,16.7-9.1,23.5-15.9
	C140.2,115.8,148,97,148,77.4c0-9.9-2-19.7-5.8-28.8c-3.8-8.8-9.1-16.7-15.9-23.5c-6.7-6.8-14.7-12.2-23.5-15.9
	C93.7,5.4,83.9,3.4,74,3.4L74,3.4z"/>
<path class="st0" d="M74,17.9c-32.8,0-59.4,26.6-59.4,59.4s26.6,59.4,59.4,59.4s59.4-26.6,59.4-59.4l0,0
	C133.5,44.5,106.9,17.9,74,17.9C74.1,17.9,74,17.9,74,17.9z M56.9,70.2l-9.1,9.1h9.1v9.9c0,7-5.7,12.7-12.7,12.7
	s-12.7-5.7-12.7-12.7V65.6c0-7,5.7-12.7,12.7-12.7s12.7,5.7,12.7,12.7V70.2z M116.7,79.3v9.9c0,7-5.7,12.7-12.7,12.7
	c-7,0-12.7-5.7-12.7-12.7V65.6c0-7,5.7-12.7,12.7-12.7c7,0,12.7,5.7,12.7,12.7v4.8l-9.1,9.1h9.1V79.3z"/>
</svg>
