<svg xmlns="http://www.w3.org/2000/svg" xmlns:xlink="http://www.w3.org/1999/xlink" viewBox="0 0 80 80">
  <path fill="#0e3ca5" d="M32.585 59.26c2 7.4 9.176 13.045 12.8 12.811.127-.008 13.745-2.547 21.2-15 5.8-9.693 3.827-19.051-4.064-19.255-2.838.207-33.745 7.349-29.934 21.446m29.198-47.527-.008-.007.011-.007a34.628 34.628 0 0 0-36.5-5.266 20.417 20.417 0 0 0-2.2 1.074c-.486.259-.972.516-1.444.8l.115.036a15.776 15.776 0 0 0-3.655 3.459C8.172 24.953 41.486 34.5 59.3 34.528c8.191 5.882 10.491-16.561 2.485-22.793Z"/>
  <path fill="#5493f7" d="M27.3 12C22.723 18.88 7.478 23.727 4.971 22.972l-.017-.032c.1-.207.207-.414.313-.619a36.682 36.682 0 0 1 10.87-12.683q1.407-1.032 2.914-1.929a10.784 10.784 0 0 1 5.039-1.342c6.789.13 3.244 5.58 3.208 5.635m-3.754 48.611c.329 2.161-.008 10.7-.45 11.418-.381.023-1.174.072-3.471-1.217A36.541 36.541 0 0 1 3.054 27.558q.183-.55.383-1.093c2.631 3.5 5.676 6.666 8.264 10.2 2.465 3.365 5.856 8.851 6.546 10.024 4.284 7.277 4.967 11.767 5.294 13.925m50.648-21.52a36.418 36.418 0 0 1-2.54 13.406c-4.3 4.62-33.284-6.753-33.568-6.878C34.116 43.885 22.05 38.6 20.961 30.3 19.4 18.35 43.63 10.026 54.28 9.711c1.277.015 5.163.06 7.429 1.9a36.413 36.413 0 0 1 12.48 27.483M54.568 71.466c-3.159 1.475-6.638.4-5.734-2.676 1.735-5.909 16.886-11.967 20.232-12.3.413-.041.588.24.405.561a36.857 36.857 0 0 1-14.9 14.41"/>
</svg>
