<?xml version="1.0" encoding="UTF-8" standalone="no"?>
<svg
   viewBox="0 0 80 80"
   version="1.1"
   id="svg2"
   sodipodi:docname="terra.svg"
   inkscape:version="1.3.2 (091e20e, 2023-11-25)"
   xmlns:inkscape="http://www.inkscape.org/namespaces/inkscape"
   xmlns:sodipodi="http://sodipodi.sourceforge.net/DTD/sodipodi-0.dtd"
   xmlns="http://www.w3.org/2000/svg"
   xmlns:svg="http://www.w3.org/2000/svg">
  <defs
     id="defs2" />
  <sodipodi:namedview
     id="namedview2"
     pagecolor="#ffffff"
     bordercolor="#000000"
     borderopacity="0.25"
     inkscape:showpageshadow="2"
     inkscape:pageopacity="0.0"
     inkscape:pagecheckerboard="0"
     inkscape:deskcolor="#d1d1d1"
     inkscape:zoom="11.0625"
     inkscape:cx="40"
     inkscape:cy="40"
     inkscape:window-width="2064"
     inkscape:window-height="1212"
     inkscape:window-x="0"
     inkscape:window-y="25"
     inkscape:window-maximized="0"
     inkscape:current-layer="svg2" />
  <path
     fill="#0e3ca5"
     d="m 34.441234,61.001293 c 2.175842,8.050619 9.982767,14.191936 13.925395,13.937362 0.138167,-0.0087 14.953482,-2.770935 23.063937,-16.318823 6.309945,-10.545223 4.163476,-20.725993 -4.421313,-20.947929 -3.087521,0.2252 -36.711913,7.995135 -32.565844,23.331566 m 31.765134,-51.7056481 -0.0087,-0.00759 0.01197,-0.00759 A 37.672548,37.672548 0 0 0 26.50267,3.5535951 22.212094,22.212094 0 0 0 24.109242,4.7220229 c -0.528729,0.2817718 -1.057459,0.5613676 -1.570958,0.8703373 l 0.125111,0.039165 A 17.16305,17.16305 0 0 0 18.687041,9.3946456 C 7.8818047,23.677968 44.124823,34.064355 63.505057,34.094817 72.416223,40.493971 74.918443,16.077748 66.208543,9.2978209 Z"
     id="path1"
     style="stroke-width:1.08792" />
  <path
     fill="#5493f7"
     d="M 28.691568,9.5861204 C 23.712151,17.07102 7.1267871,22.344176 4.3993678,21.522796 l -0.018495,-0.03481 c 0.1087923,-0.2252 0.2251998,-0.4504 0.3405195,-0.673424 A 39.907139,39.907139 0 0 1 16.5471,7.0164498 q 1.530705,-1.1227353 3.170203,-2.098601 A 11.732146,11.732146 0 0 1 25.19934,3.457858 c 7.3859,0.1414298 3.529217,6.0706025 3.490052,6.1304379 M 24.605335,62.473251 c 0.357926,2.350998 -0.0087,11.64076 -0.489566,12.421888 -0.414497,0.02503 -1.277219,0.07833 -3.776175,-1.324 A 39.753741,39.753741 0 0 1 2.3138222,26.512003 q 0.1990896,-0.598356 0.4166739,-1.189097 c 2.8623216,3.807725 6.1750427,7.252084 8.9905839,11.096799 2.681726,3.660856 6.370868,9.629194 7.121534,10.905326 4.660657,7.916804 5.403707,12.801573 5.759457,15.149308 M 79.703122,39.062266 A 39.619927,39.619927 0 0 1 76.939801,53.646943 C 72.261739,58.673141 40.72942,46.300209 40.42045,46.164218 36.106841,44.274499 22.979979,38.524833 21.795234,29.495085 20.096988,16.494422 46.457327,7.4385632 58.043692,7.0958675 c 1.389276,0.016319 5.616938,0.065275 8.082168,2.0670513 A 39.614487,39.614487 0 0 1 79.703122,39.062266 M 58.357013,74.280463 c -3.436745,1.604684 -7.221623,0.435169 -6.238142,-2.911278 1.887544,-6.428528 18.370643,-13.019157 22.010828,-13.381435 0.449312,-0.04461 0.639698,0.261101 0.440609,0.610324 a 40.097525,40.097525 0 0 1 -16.210031,15.67695"
     id="path2"
     style="stroke-width:1.08792" />
</svg>
